<?xml version="1.0" encoding="utf-8"?>
<!-- Generator: Adobe Illustrator 25.4.0, SVG Export Plug-In . SVG Version: 6.00 Build 0)  -->
<svg version="1.1" id="Calque_1" xmlns="http://www.w3.org/2000/svg" xmlns:xlink="http://www.w3.org/1999/xlink" x="0px" y="0px"
	 viewBox="0 0 400 49.88" style="enable-background:new 0 0 400 49.88;" xml:space="preserve">
<style type="text/css">
	.st0{fill:#005CB9;}
	.st1{fill:#FFD100;}
	.st2{fill:#4C2F48;}
	.st3{fill:#EE7203;}
	.st4{fill:none;stroke:#005CB9;stroke-width:0.8288;stroke-linecap:round;stroke-miterlimit:10;}
</style>
<g>
	<g>
		<path class="st0" d="M153.67,31.69c-1.57,1.48-3.1,2.47-5.35,2.47c-3.38,0-5.83-2.65-5.83-6.35v-0.08c0-3.51,2.45-6.27,5.55-6.27
			c2.37,0,3.84,1.02,5.29,2.55l0.24,0.25l4.64-4.98l-0.2-0.21c-2.58-2.89-5.64-4.16-9.93-4.16c-3.63,0-6.95,1.33-9.36,3.8
			c-2.37,2.39-3.68,5.63-3.68,9.1v0.08c0,3.46,1.32,6.7,3.69,9.06c2.4,2.44,5.69,3.77,9.26,3.77c5.29,0,8.01-2.16,10.16-4.53
			l0.2-0.22l-4.46-4.53L153.67,31.69z M219.12,9.16h-7.44v6.2h-3.03v6.12h3.03v11.64c0,5.2,2.22,7.62,7.29,7.62
			c2.17,0,3.95-0.47,5.62-1.45l0.17-0.1v-6.08l-0.48,0.24c-0.99,0.57-2.08,0.82-3.24,0.82c-1.34,0-1.91-0.6-1.91-2.04V21.47h5.73
			v-6.12h-5.73L219.12,9.16L219.12,9.16z M239.39,14.92c-3.72,0-7.15,1.33-9.65,3.77c-2.49,2.4-3.85,5.65-3.85,9.13v0.08
			c0,3.47,1.35,6.7,3.83,9.08c2.48,2.41,5.88,3.74,9.56,3.74c3.71,0,7.13-1.33,9.64-3.8c2.49-2.4,3.85-5.63,3.85-9.12v-0.08
			c0-3.46-1.35-6.7-3.8-9.1C246.47,16.23,243.07,14.92,239.39,14.92 M245.33,27.9c0,3.69-2.44,6.27-5.95,6.27
			c-3.47,0-6.08-2.71-6.08-6.35v-0.08c0-3.7,2.45-6.27,5.97-6.27c3.46,0,6.05,2.74,6.05,6.35L245.33,27.9L245.33,27.9z
			 M262.34,19.14v-3.78h-7.43v24.83h7.43v-9.53c0-5.37,2.44-8.21,7.06-8.21h0.67v-7.53h-0.3C266.44,14.75,263.99,16.14,262.34,19.14
			 M329.19,14.92c-3.1,0-5.69,1.17-7.91,3.59c-1.39-2.33-3.82-3.59-6.9-3.59c-3.33,0-5.38,1.65-6.83,3.28v-2.85h-7.43v24.83h7.43
			V26.06c0-2.98,1.37-4.59,3.84-4.59c3.05,0,3.76,2.49,3.76,4.59v14.12h7.42V26.06c0-2.98,1.43-4.59,3.89-4.59
			c3.07,0,3.73,2.49,3.73,4.59v14.12h7.42V24.1C337.62,18.26,334.62,14.92,329.19,14.92 M177.03,18.26
			c-1.58-1.98-4.05-3.34-6.94-3.34c-6.25,0-11.74,5.81-11.74,12.9v0.08c0,7.02,5.31,12.83,11.74,12.83c2.88,0,5.35-1.41,6.94-3.41
			v2.86h7.44V15.35h-7.44L177.03,18.26L177.03,18.26z M177.33,27.9c0,3.69-2.35,6.27-5.73,6.27c-3.31,0-5.81-2.71-5.81-6.35v-0.08
			c0-3.7,2.34-6.27,5.73-6.27c3.31,0,5.81,2.74,5.81,6.35V27.9z M289.55,18.26c-1.6-1.98-4.06-3.34-6.93-3.34
			c-6.25,0-11.74,5.81-11.74,12.9v0.08c0,7.02,5.31,12.83,11.74,12.83c2.87,0,5.33-1.41,6.93-3.41v2.86h7.43V15.35h-7.43V18.26z
			 M289.84,27.9c0,3.69-2.34,6.27-5.72,6.27c-3.32,0-5.81-2.71-5.81-6.35v-0.08c0-3.7,2.34-6.27,5.73-6.27
			c3.3,0,5.79,2.74,5.79,6.35L289.84,27.9L289.84,27.9z M358.16,15.35v2.9c-1.6-1.98-4.05-3.34-6.94-3.34
			c-6.26,0-11.74,5.81-11.74,12.9v0.08c0,7.02,5.31,12.83,11.74,12.83c2.88,0,5.34-1.41,6.94-3.41v2.86h7.43V15.35H358.16z
			 M358.46,27.9c0,3.69-2.35,6.27-5.73,6.27c-3.32,0-5.82-2.71-5.82-6.35v-0.08c0-3.7,2.36-6.27,5.73-6.27
			c3.32,0,5.82,2.74,5.82,6.35V27.9z M194.72,22.75c0-1.04,1.12-1.28,2.22-1.28c3.42,0,6.6,2.15,6.6,2.15l3.1-5.69l-0.26-0.14
			c-2.68-1.82-6.16-2.89-9.3-2.89c-3.42,0-9.79,2.08-9.79,7.69c0,8.74,12.89,7.14,12.89,10.41c0,0.96-1.25,1.17-2.59,1.17
			c-4.07,0-7.58-2.71-7.58-2.71l-3.53,5.35l0.24,0.17c3.07,2.43,6.87,3.75,10.68,3.75c6.07,0,10.2-3.96,10.2-7.73
			C207.61,24.71,194.72,25.69,194.72,22.75"/>
		<path class="st1" d="M393.65,21.47c3.51,0,6.35,2.83,6.35,6.34c0,3.51-2.85,6.35-6.35,6.35h-14.86c-3.51,0-6.37-2.83-6.37-6.35
			s2.86-6.34,6.37-6.34C378.79,21.47,393.65,21.47,393.65,21.47z"/>
	</g>
	<g>
		<polygon class="st2" points="8.94,0.05 3.65,0.05 7.82,11.46 1.48,11.46 0,15.51 9.3,15.51 11.75,22.23 17.05,22.23 		"/>
		<polygon class="st2" points="58.02,0.01 56.18,5.05 65.6,5.05 65.6,14.93 70.96,12.95 70.96,0.01 70.96,0 		"/>
		<polygon class="st2" points="14.74,0.01 35.64,0.01 33.8,5.05 26.46,5.05 26.46,22.22 21.08,22.22 21.08,5.05 14.74,5.05 		"/>
		<g>
			<g>
				<g>
					<g>
						<path class="st3" d="M65.54,30.06l1.49-5.39h1.48l1.47,5.39H68.8l-0.3-1.19h-1.54l-0.31,1.19H65.54z M67.71,25.71H67.7
							l-0.51,2.33h1.08L67.71,25.71z"/>
					</g>
				</g>
				<g>
					<g>
						<path class="st3" d="M71.18,24.66h0.69v3.45c0,1.18,0.36,1.48,1,1.48c0.65,0,1.01-0.3,1.01-1.48v-3.45h0.69v3.42
							c0,1.49-0.56,2.08-1.69,2.08c-1.14,0-1.69-0.59-1.69-2.08L71.18,24.66L71.18,24.66z"/>
					</g>
				</g>
				<g>
					<g>
						<path class="st3" d="M79.34,24.66v0.6h-1.42v4.79h-0.69v-4.79h-1.42v-0.6H79.34z"/>
					</g>
				</g>
				<g>
					<g>
						<path class="st3" d="M80.58,28.09v-1.77c0-1.08,0.56-1.77,1.69-1.77c1.14,0,1.69,0.69,1.69,1.77v1.77
							c0,1.49-0.56,2.08-1.69,2.08C81.14,30.17,80.58,29.58,80.58,28.09z M83.27,28.11v-1.82c0-1.13-0.78-1.16-0.99-1.16
							c-0.22,0-0.99,0.04-0.99,1.16v1.82c0,1.18,0.34,1.48,0.99,1.48C82.93,29.6,83.27,29.29,83.27,28.11z"/>
					</g>
				</g>
				<g>
					<g>
						<path class="st3" d="M86.39,27.57v2.48h-0.69v-5.39h1.86c0.95,0,1.29,0.67,1.29,1.34c0,0.64-0.35,1.12-0.99,1.23v0.02
							c0.61,0.1,0.85,0.31,0.88,1.38c0.01,0.23,0.08,1.08,0.19,1.41h-0.71c-0.19-0.37-0.15-1.08-0.21-1.79
							c-0.05-0.65-0.58-0.69-0.81-0.69L86.39,27.57L86.39,27.57z M86.39,26.98h1.03c0.5,0,0.73-0.42,0.73-0.9
							c0-0.39-0.19-0.82-0.72-0.82h-1.04L86.39,26.98L86.39,26.98z"/>
					</g>
				</g>
				<g>
					<g>
						<path class="st3" d="M91.21,30.06h-0.69v-5.39h0.69V30.06z"/>
					</g>
				</g>
				<g>
					<g>
						<path class="st3" d="M93.6,28.45v0.16c0,0.73,0.46,0.96,0.9,0.96c0.55,0,0.96-0.23,0.96-0.87c0-1.19-2.42-1.06-2.42-2.68
							c0-0.95,0.68-1.46,1.58-1.46c0.99,0,1.53,0.47,1.49,1.57H95.4c0.01-0.59-0.18-0.98-0.83-0.98c-0.41,0-0.83,0.21-0.83,0.79
							c0,1.19,2.42,1.02,2.42,2.73c0,1.14-0.79,1.5-1.67,1.5c-1.59,0.02-1.59-1.2-1.57-1.72L93.6,28.45L93.6,28.45z"/>
					</g>
				</g>
				<g>
					<g>
						<path class="st3" d="M97.77,30.06v-5.39h2.78v0.6h-2.09V27h1.94v0.6h-1.94v1.86h2.14v0.6C100.6,30.06,97.77,30.06,97.77,30.06
							z"/>
					</g>
				</g>
			</g>
		</g>
		<g>
			<g>
				<g>
					<g>
						<path class="st3" d="M69.21,34.37v0.9h-1.25v4.49h-1.13v-4.49h-1.25v-0.9H69.21z"/>
					</g>
				</g>
				<g>
					<g>
						<path class="st3" d="M70.41,37.78v-1.77c0-1.08,0.56-1.77,1.69-1.77c1.14,0,1.69,0.69,1.69,1.77v1.77
							c0,1.49-0.56,2.08-1.69,2.08C70.95,39.86,70.41,39.28,70.41,37.78z M73.09,37.81v-1.82c0-1.13-0.78-1.16-0.99-1.16
							c-0.22,0-0.99,0.04-0.99,1.16v1.82c0,1.18,0.34,1.48,0.99,1.48C72.75,39.29,73.09,38.99,73.09,37.81z"/>
					</g>
				</g>
				<g>
					<g>
						<path class="st3" d="M75.52,34.37h0.69v3.45c0,1.18,0.36,1.48,1.01,1.48c0.65,0,1.01-0.3,1.01-1.48v-3.45h0.69v3.41
							c0,1.49-0.56,2.08-1.69,2.08c-1.14,0-1.69-0.59-1.69-2.08v-3.41H75.52z"/>
					</g>
				</g>
				<g>
					<g>
						<path class="st3" d="M83.68,34.37v0.6h-1.42v4.79h-0.69v-4.79h-1.42v-0.6H83.68z"/>
					</g>
				</g>
				<g>
					<g>
						<path class="st3" d="M84.95,39.75v-5.39h2.78v0.6h-2.09v1.73h1.94v0.6h-1.94v1.86h2.14v0.6H84.95z"/>
					</g>
				</g>
			</g>
		</g>
		<g>
			<g>
				<g>
					<g>
						<path class="st3" d="M49.21,46.87c0-1.43,0-2.78,1.86-2.78c1.15,0,1.62,0.64,1.57,1.79h-1.1c0-0.72-0.12-0.99-0.46-0.99
							c-0.63,0-0.71,0.6-0.71,1.98s0.08,1.98,0.71,1.98c0.52,0,0.5-0.67,0.51-1.1h1.11c0,1.44-0.57,1.91-1.62,1.91
							C49.21,49.65,49.21,48.28,49.21,46.87z"/>
					</g>
				</g>
				<g>
					<g>
						<path class="st3" d="M54.77,47.08v2.48h-0.69v-5.39h1.86c0.95,0,1.29,0.67,1.29,1.34c0,0.64-0.35,1.12-0.99,1.23v0.02
							c0.62,0.1,0.85,0.31,0.88,1.38c0.01,0.23,0.08,1.08,0.19,1.41H56.6c-0.19-0.37-0.15-1.08-0.21-1.79
							c-0.05-0.65-0.58-0.69-0.81-0.69L54.77,47.08L54.77,47.08z M54.77,46.49h1.03c0.5,0,0.73-0.42,0.73-0.9
							c0-0.39-0.19-0.82-0.72-0.82h-1.04C54.77,44.77,54.77,46.49,54.77,46.49z"/>
					</g>
				</g>
				<g>
					<g>
						<path class="st3" d="M58.81,49.56v-5.39h2.78v0.6H59.5v1.73h1.94v0.6H59.5v1.86h2.14v0.6H58.81z M60.96,42.56l-0.98,1.05h-0.5
							l0.66-1.05H60.96z"/>
					</g>
				</g>
				<g>
					<g>
						<path class="st3" d="M64.31,44.17h0.87l1.76,5.39h-0.77l-0.39-1.28H63.7l-0.41,1.28h-0.7L64.31,44.17z M64.73,44.81h-0.02
							l-0.85,2.88h1.72L64.73,44.81z"/>
					</g>
				</g>
				<g>
					<g>
						<path class="st3" d="M70.69,44.17v0.6h-1.42v4.79h-0.69v-4.79h-1.42v-0.6H70.69z"/>
					</g>
				</g>
				<g>
					<g>
						<path class="st3" d="M72.73,49.56h-0.69v-5.39h0.69V49.56z"/>
					</g>
				</g>
				<g>
					<g>
						<path class="st3" d="M76.46,49.56h-0.82l-1.56-5.39h0.75l1.23,4.74h0.02l1.26-4.74h0.7L76.46,49.56z"/>
					</g>
				</g>
				<g>
					<g>
						<path class="st3" d="M80.07,49.56h-0.69v-5.39h0.69V49.56z"/>
					</g>
				</g>
				<g>
					<g>
						<path class="st3" d="M84.95,44.17v0.6h-1.42v4.79h-0.69v-4.79h-1.42v-0.6H84.95z"/>
					</g>
				</g>
				<g>
					<g>
						<path class="st3" d="M86.22,49.56v-5.39H89v0.6h-2.1v1.73h1.94v0.6H86.9v1.86h2.14v0.6H86.22z M88.37,42.56l-0.98,1.05h-0.5
							l0.66-1.05H88.37z"/>
					</g>
				</g>
			</g>
		</g>
		<path class="st2" d="M24.91,44.27c-3.41,0-6.19-2.64-6.19-5.9c0-3.25,2.78-5.9,6.19-5.9c0.55,0,1.09,0.07,1.59,0.21v-5.69
			c-0.52-0.07-1.05-0.12-1.59-0.12c-6.51,0-11.8,5.16-11.8,11.5c0,6.35,5.3,11.5,11.8,11.5c0.54,0,1.07-0.05,1.59-0.12v-5.69
			C25.99,44.2,25.46,44.27,24.91,44.27z"/>
	</g>
	<line class="st4" x1="119.79" y1="0.9" x2="119.79" y2="48.74"/>
</g>
</svg>
